<?xml version="1.0" encoding="utf-8"?>
<!-- Generator: Adobe Illustrator 25.0.1, SVG Export Plug-In . SVG Version: 6.00 Build 0)  -->
<svg version="1.1" id="Layer_1" xmlns="http://www.w3.org/2000/svg" xmlns:xlink="http://www.w3.org/1999/xlink" x="0px" y="0px"
	 viewBox="0 0 96 96" style="enable-background:new 0 0 96 96;" xml:space="preserve">
<style type="text/css">
	.st0{fill:#FFFFFF;}
	.st1{fill:#B3B3B3;}
</style>
<circle class="st0" cx="48" cy="48" r="39"/>
<path class="st1" d="M48,9c21.5,0,39,17.5,39,39S69.5,87,48,87S9,69.5,9,48S26.5,9,48,9 M48,0.2C21.6,0.2,0.2,21.6,0.2,48
	S21.6,95.8,48,95.8S95.8,74.4,95.8,48S74.4,0.2,48,0.2z"/>
<path class="st1" d="M33.9,42.8c-3.4,0-6.2-2.8-6.2-6.2s2.8-6.2,6.2-6.2s6.2,2.8,6.2,6.2S37.3,42.8,33.9,42.8L33.9,42.8z M33.9,33.5
	c-1.7,0-3.1,1.4-3,3.1s1.4,3.1,3.1,3c1.7,0,3-1.4,3-3.1C37,34.9,35.6,33.5,33.9,33.5L33.9,33.5z"/>
<path class="st1" d="M64.8,42.8c-3.4,0-6.2-2.8-6.1-6.2c0-3.4,2.8-6.2,6.2-6.1c3.4,0,6.1,2.8,6.1,6.2C71,40,68.2,42.8,64.8,42.8
	L64.8,42.8z M64.8,33.5c-1.7,0-3.1,1.4-3.1,3.1c0,1.7,1.4,3.1,3.1,3.1s3.1-1.4,3.1-3.1l0,0C67.9,34.9,66.5,33.5,64.8,33.5z"/>
<g>
	<g>
		<path class="st1" d="M61.4,61.7c0.6,0.1,1.1,0.5,1.4,1c0.4,0.9-0.1,1.9-0.9,2.3c-4,1.7-8.2,2.6-12.5,2.6c-4.2,0-8.5-0.8-12.5-2.5
			c-0.9-0.3-1.3-1.4-1-2.3c0.3-0.9,1.4-1.3,2.3-1c3.5,1.5,7.2,2.3,11.1,2.2s7.6-0.8,11.1-2.3C60.8,61.7,61.1,61.6,61.4,61.7z"/>
	</g>
</g>
</svg>
