<svg id="Layer_1" data-name="Layer 1" xmlns="http://www.w3.org/2000/svg" viewBox="0 0 46 46"><defs><style>.cls-1{fill:#fff;}</style></defs><path class="cls-1" d="M41,23a17.55,17.55,0,0,0-.13-2.17l5.18-3L39,5.65l-5.18,3A18.21,18.21,0,0,0,30,6.48V.5H16v6a18.21,18.21,0,0,0-3.75,2.17L7,5.66,0,17.84l5.18,3a18,18,0,0,0,0,4.32L0,28.16,7,40.34l5.18-3A18.21,18.21,0,0,0,16,39.52v6H30v-6a18.21,18.21,0,0,0,3.75-2.17l5.18,3,7-12.18-5.18-3A17.28,17.28,0,0,0,41,23ZM26.25,36.85v4.86H19.76V36.85l-1.29-.43a14.06,14.06,0,0,1-4.82-2.79l-1-.9L8.42,35.17,5.18,29.54l4.2-2.42-.26-1.34a14,14,0,0,1,0-5.57l.26-1.33-4.2-2.42,3.24-5.63,4.21,2.43,1-.89a14.06,14.06,0,0,1,4.82-2.79l1.29-.43V4.29h6.49V9.15l1.29.43a14.11,14.11,0,0,1,4.81,2.79l1,.89,4.21-2.43,3.25,5.63-4.21,2.42.27,1.34a14.45,14.45,0,0,1,0,5.56l-.27,1.33,4.21,2.43-3.25,5.62-4.21-2.43-1,.9a14,14,0,0,1-4.81,2.79Z"/><path class="cls-1" d="M23,14.15A8.85,8.85,0,1,0,31.85,23,8.86,8.86,0,0,0,23,14.15ZM28.06,23A5.06,5.06,0,1,1,23,17.94,5.07,5.07,0,0,1,28.06,23Z"/></svg>