<svg id="Layer_1" data-name="Layer 1" xmlns="http://www.w3.org/2000/svg" viewBox="0 0 46 46"><defs><style>.cls-1{fill:#fff;}</style></defs><path class="cls-1" d="M23,44.94A21.94,21.94,0,1,1,44.94,23,22,22,0,0,1,23,44.94Zm0-40a18.06,18.06,0,0,0,0,36.12h0A18.06,18.06,0,0,0,23,4.94Z"/><path class="cls-1" d="M22.2,26.58a1.64,1.64,0,0,1-1.61-1.46l-.29-2a1.46,1.46,0,0,1,1.36-1.79c2.59-.32,3.78-1.13,3.78-2.58v-.06c0-1.34-1-2.11-2.74-2.11a5.51,5.51,0,0,0-3.44,1.19,2.29,2.29,0,0,1-1.34.47,2.07,2.07,0,0,1-1.31-3.68,9.31,9.31,0,0,1,6.18-2.14c4.28,0,7.19,2.2,7.19,6.15v.06c0,3.77-2.61,5.32-5.85,6l-.09.53a1.66,1.66,0,0,1-1.61,1.46Zm0,2a2.5,2.5,0,0,1,2.58,2.53v.06a2.59,2.59,0,0,1-5.17,0v-.06A2.5,2.5,0,0,1,22.2,28.54Z"/></svg>