<?xml version="1.0" encoding="utf-8"?>
<!-- Generator: Adobe Illustrator 25.0.1, SVG Export Plug-In . SVG Version: 6.00 Build 0)  -->
<svg version="1.1" id="Layer_1" xmlns="http://www.w3.org/2000/svg" xmlns:xlink="http://www.w3.org/1999/xlink" x="0px" y="0px"
	 viewBox="0 0 43 19" style="enable-background:new 0 0 43 19;" xml:space="preserve">
<style type="text/css">
	.st0{fill:#FFD150;}
	.st1{enable-background:new    ;}
	.st2{fill:#30667B;}
</style>
<path class="st0" d="M9.6,0h23.9C38.7,0,43,4.3,43,9.5l0,0c0,5.2-4.3,9.5-9.5,9.5H9.6c-5.2,0-9.5-4.3-9.5-9.5l0,0
	C0.1,4.3,4.3,0,9.6,0z"/>
<g class="st1">
	<path class="st2" d="M10,11L7,6.9C6.9,6.7,6.8,6.5,6.8,6.2c0-0.5,0.5-1,1-1c0.5,0,0.8,0.3,1,0.6l2.3,3.3l2.3-3.3
		c0.3-0.4,0.6-0.6,1-0.6c0.6,0,1,0.4,1,1c0,0.3-0.1,0.5-0.3,0.7l-3,4.1v2.7c0,0.6-0.5,1-1,1s-1-0.5-1-1V11z"/>
</g>
<g class="st1">
	<path class="st2" d="M15.9,9.9L15.9,9.9c0-2.7,2.1-4.8,5-4.8s4.9,2.1,4.9,4.8v0c0,2.6-2.1,4.8-5,4.8S15.9,12.6,15.9,9.9z M23.6,9.9
		L23.6,9.9c0-1.6-1.2-3-2.8-3C19.2,7,18,8.3,18,9.9v0c0,1.6,1.2,2.9,2.8,2.9C22.5,12.9,23.6,11.5,23.6,9.9z"/>
	<path class="st2" d="M27.4,10.6V6.2c0-0.6,0.5-1,1-1s1,0.5,1,1v4.3c0,1.5,0.8,2.3,2,2.3c1.3,0,2-0.8,2-2.2V6.2c0-0.6,0.5-1,1-1
		s1,0.5,1,1v4.3c0,2.8-1.6,4.2-4.1,4.2C29,14.7,27.4,13.3,27.4,10.6z"/>
</g>
</svg>
