<svg id="Layer_1" data-name="Layer 1" xmlns="http://www.w3.org/2000/svg" viewBox="0 0 163.39 77.41"><defs><style>.cls-1{fill:#fff;}</style></defs><path class="cls-1" d="M57.21,22.81v-21c0-1.16.57-1.75,1.61-1.75h.56a1.53,1.53,0,0,1,1.69,1.75v8.79H73.82V1.83c0-1.16.56-1.75,1.61-1.75H76c1.12,0,1.68.59,1.68,1.75v21c0,1.16-.56,1.76-1.68,1.76h-.56c-1.05,0-1.61-.6-1.61-1.76V14H61.07v8.82a1.53,1.53,0,0,1-1.69,1.76h-.56C57.78,24.57,57.21,24,57.21,22.81Z"/><path class="cls-1" d="M79.79,23.45l8.6-22.22c.3-.78.9-1.23,2.66-1.23S93.4.45,93.7,1.23l8.68,22.22c.11.3-1,1.16-2.13,1.16A2.39,2.39,0,0,1,98,22.81l-2.13-5.49H86.15L84,22.85a2.24,2.24,0,0,1-2.14,1.76C80.76,24.61,79.68,23.78,79.79,23.45Zm15.07-9.24L91,4,87.08,14.21Z"/><path class="cls-1" d="M104.5,22.81V2.39A2,2,0,0,1,106.56.22h6.24c6,0,9.39,2.74,9.39,7.71s-3.29,7.78-9.54,7.78h-4.3v7.1a1.57,1.57,0,0,1-1.68,1.76h-.56C105.06,24.57,104.5,24,104.5,22.81ZM118.33,8c0-3-1.9-4.6-5.57-4.6h-4.45v9.2h4.41C116.43,12.6,118.33,11,118.33,8Z"/><path class="cls-1" d="M124.83,22.81V2.39A2,2,0,0,1,126.89.22h6.24c6,0,9.39,2.74,9.39,7.71s-3.29,7.78-9.54,7.78h-4.3v7.1A1.57,1.57,0,0,1,127,24.57h-.56C125.39,24.57,124.83,24,124.83,22.81ZM138.67,8c0-3-1.91-4.6-5.57-4.6h-4.45v9.2h4.41C136.76,12.6,138.67,11,138.67,8Z"/><path class="cls-1" d="M151,22.81v-8.3L142.44,1.65c-.12-.26.59-1.57,2.43-1.57a2.19,2.19,0,0,1,1.87,1.34l6.2,9.87,6.21-9.87A2.32,2.32,0,0,1,161.06.08c1.68,0,2.47,1.34,2.32,1.57l-8.53,12.86v8.3c0,1.16-.56,1.76-1.68,1.76h-.53C151.56,24.57,151,24,151,22.81Z"/><path class="cls-1" d="M57.21,52.18V31.66a2.06,2.06,0,0,1,2.13-2.24h8.23C73,29.42,76,31.7,76,35.91c0,2.71-1.55,4.52-4.4,5.37,3.7.85,5.4,3.21,5.4,6.14,0,4.68-3,7-9.5,7H59.34A2.06,2.06,0,0,1,57.21,52.18Zm9.86-11.86c2.93,0,4.79-1.55,4.79-3.94S70.23,32.63,67,32.63H61.15v7.69Zm.15,10.89c4,0,5.68-1.2,5.68-4.09,0-2.63-1.86-3.95-5.56-3.95H61.15v8Z"/><path class="cls-1" d="M80.11,52.52V31.66a2.06,2.06,0,0,1,2.13-2.24h7.11c6.1,0,9.35,2.55,9.35,7.5,0,3.74-2,6.29-5.88,7.1a10,10,0,0,1-1.58.24L98.54,53c.19.23-.66,1.62-2.32,1.62A3,3,0,0,1,93.63,53L86.8,44.64H84.05v8.11a1.63,1.63,0,0,1-1.74,1.82h-.54C80.69,54.57,80.11,53.84,80.11,52.52Zm9.16-11c3.67,0,5.41-1.7,5.41-4.4,0-2.9-1.86-4.41-5.53-4.41H84v8.81Z"/><path class="cls-1" d="M99.46,53.41l8.88-22.95c.31-.81.93-1.27,2.75-1.27s2.43.46,2.74,1.27l9,22.95c.12.31-1,1.2-2.2,1.2a2.46,2.46,0,0,1-2.36-1.86L116,47.08H106l-2.21,5.71a2.3,2.3,0,0,1-2.2,1.82C100.46,54.61,99.34,53.76,99.46,53.41ZM115,43.87l-4-10.59-4,10.59Z"/><path class="cls-1" d="M125.33,31.08c0-1.19.58-1.81,1.7-1.81h.54a1.58,1.58,0,0,1,1.74,1.81V52.75c0,1.2-.58,1.82-1.74,1.82H127c-1.12,0-1.7-.62-1.7-1.82Z"/><path class="cls-1" d="M134,52.75V31.51c0-1.35.66-2.24,1.89-2.24h.66c1.2,0,1.66.5,2.39,1.5l12.37,17.54V31.08c0-1.19.5-1.81,1.66-1.81h.46c1.08,0,1.62.62,1.62,1.81V52.33c0,1.39-.69,2.24-1.85,2.24h-.31a2.13,2.13,0,0,1-2.13-1.2l-13-18.43V52.75c0,1.2-.54,1.82-1.7,1.82h-.43C134.52,54.57,134,54,134,52.75Z"/><path class="cls-1" d="M55.78,73.54a1.76,1.76,0,0,1,1.27-1.48,6.31,6.31,0,0,0,5.24,2.66c2.41,0,3.79-1,3.79-2.71,0-2-2-2.42-4.36-3C59,68.43,56.24,67.49,56.24,64c0-2.95,2.55-5,6.26-5a7.87,7.87,0,0,1,4.92,1.43,2.28,2.28,0,0,1,1,1.66,1.82,1.82,0,0,1-1.29,1.53,5.74,5.74,0,0,0-4.65-2.34c-2.18,0-3.6,1-3.6,2.66,0,1.91,1.69,2.21,4.11,2.77,2.95.67,5.8,1.83,5.8,5.19,0,3.2-2.47,5.18-6.53,5.18a8.3,8.3,0,0,1-5.64-1.8A2.44,2.44,0,0,1,55.78,73.54Z"/><path class="cls-1" d="M79.15,58.92a8.42,8.42,0,0,1,4.92,1.4,3.25,3.25,0,0,1,1.64,2.28,1.63,1.63,0,0,1-1.61,1.51,5.63,5.63,0,0,0-4.92-2.69c-3.52,0-6,2.66-6,6.53s2.55,6.55,6,6.55a5.16,5.16,0,0,0,5-3c0-.14,1.72.19,1.72,1.48a3.67,3.67,0,0,1-1.72,2.49A8.58,8.58,0,0,1,79.07,77c-5.16,0-8.76-3.7-8.76-9S73.94,58.92,79.15,58.92Z"/><path class="cls-1" d="M88.2,60.43c0-.84.4-1.27,1.18-1.27h.38c.8,0,1.21.43,1.21,1.27V75.5a1.1,1.1,0,0,1-1.21,1.26h-.38c-.78,0-1.18-.43-1.18-1.26Z"/><path class="cls-1" d="M94.24,75.12V60.83a1.43,1.43,0,0,1,1.48-1.56h10.07c.86,0,1.29.43,1.29,1.16v.16c0,.75-.43,1.15-1.29,1.15H97v4.87h6.8c.88,0,1.29.37,1.29,1.1v.08c0,.75-.43,1.15-1.29,1.15H97v5.27H106c.85,0,1.26.37,1.26,1.1v.13A1.1,1.1,0,0,1,106,76.65H95.72A1.41,1.41,0,0,1,94.24,75.12Z"/><path class="cls-1" d="M109.33,75.5V60.72c0-.94.46-1.56,1.32-1.56h.46c.83,0,1.15.35,1.66,1.05l8.6,12.2v-12c0-.84.35-1.27,1.16-1.27h.32c.75,0,1.13.43,1.13,1.27V75.2c0,1-.49,1.56-1.29,1.56h-.22a1.48,1.48,0,0,1-1.48-.83l-9-12.82V75.5c0,.83-.38,1.26-1.18,1.26h-.3C109.68,76.76,109.33,76.33,109.33,75.5Z"/><path class="cls-1" d="M135.17,58.92a8.42,8.42,0,0,1,4.92,1.4,3.25,3.25,0,0,1,1.64,2.28,1.63,1.63,0,0,1-1.61,1.51,5.63,5.63,0,0,0-4.92-2.69c-3.52,0-6,2.66-6,6.53s2.55,6.55,6,6.55a5.16,5.16,0,0,0,5-3c.05-.14,1.72.19,1.72,1.48a3.67,3.67,0,0,1-1.72,2.49A8.58,8.58,0,0,1,135.09,77c-5.16,0-8.76-3.7-8.76-9S130,58.92,135.17,58.92Z"/><path class="cls-1" d="M144,75.12V60.83a1.43,1.43,0,0,1,1.48-1.56h10.07c.86,0,1.29.43,1.29,1.16v.16c0,.75-.43,1.15-1.29,1.15h-8.79v4.87h6.8c.89,0,1.29.37,1.29,1.1v.08c0,.75-.43,1.15-1.29,1.15h-6.8v5.27h8.95c.86,0,1.26.37,1.26,1.1v.13a1.09,1.09,0,0,1-1.26,1.21H145.46A1.41,1.41,0,0,1,144,75.12Z"/><path class="cls-1" d="M1.77,62.2a6,6,0,0,0,10.28-4.88L28,52.57a10.93,10.93,0,0,0,9,6.66v8.69a4.79,4.79,0,1,0,2.3,0V59.23a10.9,10.9,0,0,0,9.71-9.74h3.29V47.19H48.93a10.92,10.92,0,0,0-9.75-9.72.61.61,0,0,0,0-.14l0-27.58A4.82,4.82,0,1,0,34.6,8.49a4.75,4.75,0,0,0,2.26,1.27l0,27.58a.61.61,0,0,0,0,.14,11,11,0,0,0-3.74,1.09L29.4,32.66a4.83,4.83,0,1,0-1.94,1.23l3.78,5.92a11.86,11.86,0,0,0-.93.82,10.93,10.93,0,0,0-3,9.74L11.4,55.12a6.14,6.14,0,0,0-1.09-1.48A6,6,0,0,0,1.77,62.2ZM27.7,31.11a2.52,2.52,0,1,1,0-3.57A2.53,2.53,0,0,1,27.7,31.11ZM36.22,6.87a2.53,2.53,0,1,1,3.57,0A2.54,2.54,0,0,1,36.22,6.87Zm3.65,63.94a2.52,2.52,0,1,1-3.57,0A2.53,2.53,0,0,1,39.87,70.81ZM31.94,42.25a8.64,8.64,0,1,1,0,12.23A8.65,8.65,0,0,1,31.94,42.25Zm-28.55,13a3.75,3.75,0,1,1,0,5.3A3.75,3.75,0,0,1,3.39,55.27Z"/><path class="cls-1" d="M42.28,51.14a1.15,1.15,0,0,1,0,1.62,6,6,0,0,1-8.55,0,1.15,1.15,0,1,1,1.62-1.62,3.75,3.75,0,0,0,5.3,0A1.14,1.14,0,0,1,42.28,51.14Z"/><circle class="cls-1" cx="35.16" cy="46.1" r="1.22"/><circle class="cls-1" cx="40.93" cy="46.1" r="1.22"/></svg>